<svg width="120" height="128" viewBox="0 0 120 128" fill="none" xmlns="http://www.w3.org/2000/svg">
<path d="M40.0668 33.6218C40.4155 33.7526 40.6771 33.8397 40.9168 33.9705C42.0503 34.6026 43.1837 35.2783 44.339 35.8887C44.8403 36.1502 44.9493 36.499 44.9275 36.9785C44.9275 39.289 44.9057 41.5995 44.9275 43.8882C44.9493 47.2885 44.9711 50.667 45.0583 54.0673C45.1019 55.4188 45.4942 56.7048 45.9519 57.969C46.4315 59.2986 47.0854 60.5192 47.8919 61.6527C49.2215 63.5054 50.8781 64.9876 52.8834 66.0339C54.0822 66.6442 55.3246 67.2109 56.6761 67.4071C57.6787 67.5597 58.7032 67.8212 59.7058 67.8212C61.515 67.8212 63.3023 67.5597 65.0461 66.9276C67.1822 66.1429 69.0567 64.9876 70.6697 63.3965C72.0429 62.0668 73.0892 60.4757 73.8521 58.7537C74.7022 56.8138 75.0945 54.743 75.1163 52.6069C75.1381 51.7569 75.0509 50.885 75.1381 50.0567C75.2689 48.7489 74.6804 47.9206 73.5905 47.3321C72.6315 46.8089 71.6724 46.2858 70.7351 45.7409C69.0132 44.7382 67.2912 43.7356 65.5692 42.7329C63.4767 41.5123 61.406 40.2698 59.3135 39.0492C57.1338 37.785 54.9323 36.5208 52.7526 35.2565C50.6383 34.0359 48.5676 32.7717 46.4533 31.5293C44.4916 30.3958 42.5298 29.306 40.5681 28.1725C40.2193 27.9546 39.9796 27.6494 40.0014 27.1699C40.045 25.0992 40.0014 23.0284 40.1104 20.9577C40.1757 19.4319 40.2847 17.8844 40.5681 16.3804C40.9168 14.4404 41.6143 12.6095 42.617 10.8875C43.794 8.8604 45.2544 7.07305 47.0636 5.54726C48.9381 3.97788 50.987 2.69185 53.2975 1.88537C54.4528 1.47122 55.6298 1.07888 56.9158 1.05708C58.6378 1.01349 60.3597 0.817314 62.0599 0.926299C63.4767 1.01349 64.8935 1.34044 66.2667 1.77638C68.9042 2.64826 71.2582 3.97788 73.3507 5.80882C75.1817 7.4218 76.6639 9.31814 77.6883 11.5414C78.3423 12.9146 78.8436 14.375 79.3667 15.7918C79.5629 16.315 79.6501 16.8817 79.6937 17.4266C80.2168 23.2028 79.8462 29.0008 79.9552 34.777C79.977 36.4336 79.9552 38.0684 79.9552 39.9211C79.4757 39.6595 79.1269 39.4852 78.7782 39.289C77.7755 38.7441 76.7729 38.1773 75.7702 37.6324C75.3343 37.4144 75.1599 37.1093 75.1599 36.608C75.1599 31.6164 75.1599 26.6249 75.1381 21.6334C75.1381 19.4101 74.8547 17.2304 73.9829 15.1379C73.0456 12.871 71.7596 10.8875 69.885 9.29634C68.2503 7.90133 66.3757 6.94227 64.3268 6.28836C62.6048 5.74343 60.8611 5.48187 59.0519 5.61265C56.7415 5.78703 54.5618 6.44094 52.5782 7.63977C50.6601 8.79501 48.9817 10.2118 47.7175 12.0646C46.7366 13.5032 45.9519 15.0289 45.516 16.7291C45.1891 17.9715 45.0583 19.2576 45.0583 20.5436C45.0583 22.004 45.0583 23.4862 45.0365 24.9466C45.0365 25.3171 45.1019 25.5351 45.4942 25.7531C47.8919 27.1045 50.2677 28.5213 52.6436 29.8945C54.9977 31.2459 57.3518 32.5755 59.7276 33.9269C61.9291 35.1912 64.1524 36.4336 66.3757 37.676C68.7734 39.0492 71.1929 40.4006 73.5905 41.7738C75.4869 42.8637 77.3832 43.9535 79.2795 45.0216C79.7373 45.2832 80.0206 45.6101 79.9988 46.1986C79.9552 48.8143 80.0206 51.4299 79.9116 54.0455C79.8462 55.7021 79.5193 57.3587 79.018 58.9717C78.2115 61.5437 76.9473 63.8106 75.1817 65.8159C73.5033 67.6905 71.6288 69.347 69.3401 70.4151C68.2721 70.9164 67.204 71.4395 66.0706 71.8319C65.2423 72.137 64.3268 72.3114 63.4549 72.3986C62.1689 72.5512 60.8611 72.5948 59.5533 72.6384C58.2454 72.7038 56.9812 72.464 55.6952 72.1806C54.3438 71.8973 53.0578 71.4613 51.7935 70.9164C50.3113 70.2625 48.9599 69.4124 47.6739 68.4098C45.7122 66.9058 44.121 65.053 42.8568 62.9605C42.0285 61.5873 41.3964 60.1051 40.9822 58.5139C40.6335 57.1843 40.2629 55.8765 40.2411 54.5033C40.2193 53.0647 40.0668 51.6261 40.0668 50.1657C40.045 44.8908 40.0668 39.6377 40.0668 34.3629C40.0668 34.1667 40.0668 33.9487 40.0668 33.6218Z" fill="white"/>
<path d="M54.6277 26.5156C53.2762 25.7091 52.0992 24.859 50.8132 24.2705C49.8323 23.8345 49.7669 23.2024 49.8105 22.3523C49.8541 21.524 49.8105 20.674 49.8541 19.8457C50.0067 16.9249 51.2927 14.549 53.4724 12.6745C54.802 11.541 56.3932 10.8435 58.1588 10.4948C59.6628 10.1896 61.145 10.2114 62.6271 10.6038C65.0248 11.2577 66.9647 12.6091 68.4469 14.6362C69.2534 15.7478 69.7984 16.9685 70.1471 18.2763C70.3215 18.9302 70.4523 19.6277 70.4523 20.3034C70.4741 25.1423 70.4741 30.0031 70.4523 34.842C70.4523 35.0382 70.3651 35.2344 70.2997 35.4305C70.1035 35.3651 69.8855 35.3433 69.7112 35.2344C68.4687 34.5368 67.2481 33.8393 66.0057 33.1418C65.6133 32.9239 65.5261 32.5533 65.5261 32.1392C65.5261 30.7442 65.5479 29.3492 65.5261 27.9542C65.5044 25.2513 65.5697 22.5485 65.4172 19.8457C65.3082 18.0147 64.2619 16.6633 62.5836 15.8132C61.4065 15.2247 60.1641 15.0939 58.8999 15.3337C57.3523 15.6171 56.197 16.5761 55.4123 17.9057C54.8456 18.843 54.6495 19.9111 54.6495 21.0009C54.6495 22.5703 54.6495 24.1179 54.6495 25.6873C54.6277 25.9488 54.6277 26.1668 54.6277 26.5156Z" fill="white"/>
<path d="M49.854 37.9373C51.4234 38.831 52.9274 39.6592 54.3878 40.5529C54.5404 40.6401 54.6058 40.9889 54.6058 41.2068C54.6276 43.9968 54.6058 46.8087 54.6276 49.5987C54.6276 50.7103 54.6058 51.822 54.6712 52.9118C54.8237 55.1569 55.87 56.8571 57.9407 57.7725C59.1831 58.3175 60.491 58.3611 61.8206 57.8815C63.5643 57.2712 64.6324 56.0942 65.1991 54.3504C65.6568 52.999 65.4171 51.6258 65.4825 50.2526C65.5043 49.7077 65.4607 49.1627 65.4607 48.6178C65.4607 48.2691 65.635 48.1819 65.8966 48.3562C67.3134 49.2281 68.7084 50.1218 70.1034 51.0373C70.2778 51.1463 70.4086 51.4732 70.4304 51.6912C70.5612 53.1734 70.365 54.6338 69.8855 56.007C69.4495 57.2712 68.7956 58.4264 67.9019 59.4291C67.0082 60.4536 65.962 61.3472 64.6978 61.914C63.8477 62.3063 62.954 62.6333 62.0385 62.8076C61.1013 63.0038 60.0986 63.1128 59.1395 63.0256C57.0034 62.8512 55.0853 62.023 53.4069 60.6715C52.0119 59.5381 51.0093 58.1213 50.3554 56.4647C49.9194 55.3531 49.7668 54.176 49.7886 52.9772C49.8104 48.1601 49.7886 43.3429 49.7886 38.5476C49.8104 38.3732 49.8322 38.1989 49.854 37.9373Z" fill="white"/>
<path d="M12.6507 126.95V119.49H13.5186V126.174H16.8304V126.95H12.6507Z" fill="white"/>
<path d="M20.4649 119.23C20.6041 119.23 20.7238 119.275 20.824 119.365C20.9242 119.455 20.975 119.595 20.975 119.785C20.975 119.973 20.9242 120.112 20.824 120.204C20.7238 120.297 20.6041 120.342 20.4649 120.342C20.3191 120.342 20.1968 120.297 20.1005 120.204C20.0042 120.112 19.9548 119.973 19.9548 119.785C19.9548 119.595 20.0029 119.455 20.1005 119.365C20.1981 119.276 20.3191 119.23 20.4649 119.23ZM20.8787 121.323V126.916H20.0315V121.323H20.8787Z" fill="white"/>
<path d="M26.2192 126.906L24.0968 121.313H25.0051L26.2348 124.696C26.3194 124.928 26.4066 125.183 26.495 125.461C26.5835 125.74 26.6447 125.965 26.6785 126.135H26.7137C26.754 125.965 26.823 125.74 26.918 125.459C27.013 125.178 27.1001 124.924 27.1782 124.696L28.4079 121.313H29.3162L27.1886 126.906H26.2192Z" fill="white"/>
<path d="M34.9066 121.181C35.3828 121.181 35.7914 121.287 36.1311 121.498C36.4707 121.708 36.731 122.004 36.9119 122.383C37.0914 122.763 37.1825 123.205 37.1825 123.711V124.237H33.319C33.3294 124.894 33.4921 125.394 33.8083 125.737C34.1245 126.081 34.5708 126.253 35.1447 126.253C35.4987 126.253 35.811 126.22 36.0842 126.155C36.3562 126.09 36.6386 125.995 36.9314 125.869V126.613C36.649 126.739 36.3692 126.83 36.092 126.889C35.8149 126.946 35.4869 126.976 35.1096 126.976C34.5721 126.976 34.1037 126.867 33.7042 126.647C33.3047 126.427 32.9937 126.106 32.7725 125.68C32.5512 125.254 32.4406 124.734 32.4406 124.118C32.4406 123.516 32.5421 122.995 32.7438 122.554C32.9455 122.114 33.2318 121.775 33.6014 121.537C33.9709 121.301 34.4043 121.181 34.9066 121.181ZM34.8962 121.876C34.4433 121.876 34.0829 122.025 33.8148 122.32C33.5454 122.615 33.3867 123.029 33.3346 123.56H36.2937C36.2898 123.227 36.2391 122.933 36.1376 122.681C36.0374 122.427 35.8851 122.23 35.6808 122.088C35.4778 121.948 35.215 121.876 34.8962 121.876Z" fill="white"/>
<path d="M48.7302 127.08H47.857V120.385H45.5108V119.62H51.0673V120.385H48.7302V127.08Z" fill="white"/>
<path d="M55.0349 119.099V121.472C55.0349 121.608 55.031 121.745 55.0245 121.883C55.018 122.021 55.0063 122.147 54.9894 122.263H55.0453C55.1611 122.065 55.3082 121.9 55.4865 121.766C55.6647 121.632 55.8677 121.529 56.0968 121.46C56.3245 121.39 56.5665 121.356 56.8216 121.356C57.2705 121.356 57.6453 121.427 57.9472 121.571C58.2478 121.714 58.4742 121.935 58.6252 122.234C58.7761 122.533 58.8529 122.921 58.8529 123.398V127.041H58.0162V123.452C58.0162 122.986 57.9095 122.638 57.6974 122.406C57.4852 122.174 57.1586 122.059 56.7201 122.059C56.305 122.059 55.9744 122.138 55.7272 122.295C55.48 122.453 55.3043 122.686 55.1963 122.992C55.0896 123.297 55.0362 123.672 55.0362 124.115V127.039H54.1891V119.099H55.0349Z" fill="white"/>
<path d="M64.4406 121.312C64.9169 121.312 65.3255 121.417 65.6652 121.628C66.0048 121.839 66.2651 122.134 66.4459 122.513C66.6255 122.893 66.7166 123.335 66.7166 123.841V124.367H62.8544C62.8648 125.024 63.0274 125.524 63.3437 125.867C63.6599 126.211 64.1062 126.383 64.6801 126.383C65.034 126.383 65.3463 126.35 65.6196 126.285C65.8916 126.22 66.174 126.125 66.4667 125.999V126.743C66.1844 126.869 65.9046 126.96 65.6274 127.019C65.3502 127.076 65.0223 127.106 64.6449 127.106C64.1075 127.106 63.639 126.997 63.2396 126.777C62.8401 126.557 62.529 126.236 62.3078 125.81C62.0866 125.385 61.976 124.864 61.976 124.249C61.976 123.646 62.0775 123.126 62.2792 122.684C62.4809 122.245 62.7672 121.905 63.1367 121.667C63.5063 121.431 63.9422 121.312 64.4406 121.312ZM64.4328 122.006C63.98 122.006 63.6195 122.155 63.3515 122.45C63.0821 122.746 62.9233 123.159 62.8713 123.69H65.8304C65.8265 123.357 65.7758 123.063 65.6743 122.811C65.5741 122.557 65.4218 122.36 65.2175 122.219C65.0132 122.077 64.7503 122.006 64.4328 122.006Z" fill="white"/>
<path d="M78.6169 122.891H81.2247V126.509C80.833 126.642 80.4309 126.741 80.0184 126.804C79.6046 126.869 79.1426 126.902 78.6325 126.902C77.8569 126.902 77.2024 126.747 76.6701 126.437C76.1379 126.128 75.7332 125.687 75.4586 125.113C75.1828 124.54 75.0448 123.858 75.0448 123.068C75.0448 122.297 75.1971 121.623 75.5016 121.047C75.8061 120.472 76.2472 120.026 76.8237 119.708C77.4002 119.391 78.0938 119.231 78.9032 119.231C79.3183 119.231 79.7113 119.269 80.0847 119.345C80.4569 119.422 80.803 119.53 81.1232 119.669L80.7913 120.424C80.5155 120.306 80.2123 120.203 79.8804 120.118C79.5486 120.034 79.2064 119.991 78.8524 119.991C78.2434 119.991 77.7216 120.117 77.2883 120.368C76.8549 120.619 76.5231 120.976 76.2928 121.435C76.0624 121.895 75.9479 122.438 75.9479 123.068C75.9479 123.69 76.0481 124.233 76.2485 124.694C76.4489 125.154 76.7625 125.512 77.1868 125.767C77.6123 126.022 78.1601 126.15 78.8303 126.15C79.1673 126.15 79.4562 126.13 79.6982 126.091C79.9403 126.052 80.1589 126.005 80.3567 125.951V123.667H78.6169V122.891Z" fill="white"/>
<path d="M86.8514 121.051C87.5177 121.051 88.0135 121.201 88.3362 121.5C88.6589 121.8 88.8216 122.277 88.8216 122.934V126.735H88.2035L88.0408 125.909H88.0005C87.8443 126.113 87.6804 126.284 87.5112 126.422C87.3407 126.56 87.1442 126.664 86.9217 126.733C86.6992 126.802 86.4259 126.837 86.1032 126.837C85.7623 126.837 85.4604 126.777 85.1975 126.659C84.9333 126.539 84.7264 126.359 84.5755 126.117C84.4245 125.875 84.3491 125.569 84.3491 125.199C84.3491 124.64 84.5703 124.212 85.0127 123.913C85.4552 123.614 86.1279 123.45 87.0336 123.424L87.9979 123.383V123.041C87.9979 122.558 87.8938 122.22 87.6869 122.026C87.48 121.832 87.1872 121.735 86.8098 121.735C86.517 121.735 86.2385 121.777 85.9731 121.862C85.7076 121.947 85.4565 122.047 85.2183 122.163L84.9581 121.52C85.2092 121.391 85.4994 121.28 85.826 121.188C86.1461 121.099 86.4897 121.051 86.8514 121.051ZM87.9836 123.982L87.1312 124.017C86.4337 124.044 85.9418 124.158 85.6569 124.359C85.3706 124.56 85.2287 124.845 85.2287 125.212C85.2287 125.532 85.3263 125.767 85.5202 125.921C85.7141 126.074 85.9705 126.15 86.2906 126.15C86.7877 126.15 87.1937 126.012 87.5099 125.736C87.8261 125.46 87.9849 125.048 87.9849 124.496L87.9836 123.982Z" fill="white"/>
<path d="M98.0204 121.051C98.6359 121.051 99.1005 121.213 99.4141 121.534C99.7264 121.856 99.8838 122.372 99.8838 123.083V126.747H99.0471V123.123C99.0471 122.67 98.9495 122.332 98.7543 122.105C98.5591 121.879 98.2689 121.766 97.8838 121.766C97.3424 121.766 96.9494 121.922 96.7048 122.236C96.4602 122.549 96.3378 123.01 96.3378 123.619V126.747H95.4933V123.123C95.4933 122.82 95.4504 122.569 95.3632 122.368C95.276 122.168 95.1472 122.017 94.9754 121.917C94.8036 121.816 94.5863 121.766 94.3247 121.766C93.9539 121.766 93.6559 121.843 93.4321 121.995C93.2069 122.148 93.0456 122.375 92.9441 122.677C92.8439 122.977 92.7931 123.348 92.7931 123.787V126.746H91.946V121.154H92.6292L92.7567 121.945H92.8022C92.9141 121.751 93.056 121.587 93.2251 121.456C93.3956 121.323 93.5856 121.223 93.7964 121.155C94.0072 121.088 94.2324 121.054 94.4705 121.054C94.896 121.054 95.2526 121.133 95.5401 121.291C95.8277 121.45 96.0359 121.69 96.1648 122.013H96.2103C96.3938 121.69 96.6462 121.45 96.9651 121.291C97.2878 121.132 97.6378 121.051 98.0204 121.051Z" fill="white"/>
<path d="M105.47 121.051C105.947 121.051 106.355 121.157 106.695 121.368C107.034 121.578 107.295 121.874 107.476 122.252C107.655 122.632 107.746 123.075 107.746 123.581V124.107H103.884C103.894 124.764 104.057 125.264 104.373 125.607C104.69 125.951 105.136 126.122 105.71 126.122C106.064 126.122 106.376 126.09 106.649 126.025C106.921 125.96 107.204 125.865 107.496 125.739V126.483C107.214 126.609 106.934 126.7 106.657 126.759C106.38 126.816 106.052 126.846 105.675 126.846C105.137 126.846 104.669 126.737 104.269 126.517C103.87 126.297 103.559 125.975 103.337 125.55C103.116 125.124 103.006 124.604 103.006 123.988C103.006 123.386 103.107 122.865 103.309 122.424C103.511 121.984 103.797 121.645 104.166 121.407C104.535 121.171 104.971 121.051 105.47 121.051ZM105.46 121.746C105.007 121.746 104.647 121.895 104.379 122.19C104.109 122.485 103.95 122.899 103.898 123.43H106.857C106.854 123.097 106.803 122.803 106.701 122.55C106.601 122.297 106.449 122.1 106.245 121.958C106.04 121.818 105.78 121.746 105.46 121.746Z" fill="white"/>
<path d="M24.2061 102.785C24.2061 103.915 23.9302 104.887 23.3785 105.702C22.8267 106.518 22.0368 107.144 21.0075 107.578C19.9782 108.012 18.7524 108.228 17.3275 108.228C16.6326 108.228 15.9689 108.189 15.3339 108.111C14.7002 108.033 14.1029 107.919 13.5433 107.766C12.9838 107.614 12.4684 107.431 12 107.213V104.27C12.7821 104.608 13.65 104.915 14.6052 105.188C15.5603 105.462 16.5324 105.598 17.5227 105.598C18.3308 105.598 18.9983 105.492 19.5292 105.28C20.0589 105.067 20.4558 104.763 20.7212 104.367C20.9867 103.972 21.1181 103.51 21.1181 102.98C21.1181 102.415 20.9659 101.94 20.6627 101.554C20.3582 101.167 19.9001 100.81 19.2885 100.479C18.6769 100.149 17.9052 99.7972 16.9761 99.4238C16.3515 99.1804 15.7555 98.898 15.192 98.5766C14.6273 98.2552 14.1237 97.8778 13.6812 97.4432C13.2388 97.0086 12.8862 96.492 12.6259 95.8934C12.3656 95.2948 12.2355 94.596 12.2355 93.7957C12.2355 92.7195 12.4958 91.7956 13.0176 91.0278C13.5381 90.2588 14.2694 89.6706 15.2129 89.2633C16.155 88.8547 17.2559 88.6504 18.5142 88.6504C19.5123 88.6504 20.4532 88.7571 21.3341 88.9692C22.2151 89.1826 23.0818 89.4754 23.9328 89.8489L22.9425 92.376C22.1526 92.0546 21.3927 91.7956 20.6627 91.6004C19.9326 91.4052 19.187 91.3076 18.4218 91.3076C17.7621 91.3076 17.2012 91.4078 16.7419 91.6069C16.2812 91.8073 15.9325 92.0884 15.693 92.4541C15.4536 92.8184 15.3352 93.2439 15.3352 93.7306C15.3352 94.2954 15.4718 94.7638 15.7451 95.1373C16.0184 95.5108 16.4439 95.853 17.0217 96.1666C17.5994 96.4789 18.3438 96.8264 19.256 97.209C20.3061 97.6436 21.1988 98.0991 21.9327 98.5766C22.6667 99.0542 23.2288 99.6255 23.6192 100.289C24.0109 100.954 24.2061 101.786 24.2061 102.785Z" fill="white"/>
<path d="M33.3229 105.751C33.7224 105.751 34.118 105.714 34.5084 105.64C34.8988 105.566 35.2553 105.477 35.5767 105.373V107.692C35.2384 107.839 34.7999 107.966 34.2611 108.07C33.7224 108.174 33.1629 108.226 32.5812 108.226C31.7653 108.226 31.0313 108.089 30.3794 107.816C29.7288 107.543 29.2108 107.072 28.8296 106.403C28.447 105.734 28.257 104.809 28.257 103.628V95.8896H26.2881V94.5232L28.3988 93.4289L29.4021 90.3422H31.3293V93.546H35.4583V95.8909H31.3293V103.589C31.3293 104.319 31.5115 104.862 31.8759 105.217C32.2402 105.574 32.7217 105.751 33.3229 105.751Z" fill="white"/>
<path d="M44.2498 93.3339C45.5355 93.3339 46.6377 93.5993 47.5577 94.1289C48.4777 94.6586 49.1856 95.4094 49.6814 96.3828C50.1759 97.3548 50.4245 98.5195 50.4245 99.8741V101.516H40.7988C40.834 102.915 41.2087 103.991 41.9257 104.746C42.6427 105.502 43.6473 105.88 44.9408 105.88C45.8608 105.88 46.6885 105.791 47.4224 105.613C48.1563 105.435 48.9137 105.172 49.6957 104.824V107.312C48.9748 107.651 48.2409 107.898 47.494 108.055C46.747 108.212 45.853 108.29 44.8107 108.29C43.3949 108.29 42.1496 108.016 41.0721 107.468C39.9946 106.922 39.1579 106.101 38.558 105.006C37.9581 103.912 37.6588 102.55 37.6588 100.916C37.6588 99.3016 37.9321 97.9287 38.4799 96.8005C39.0265 95.6723 39.7955 94.8121 40.7858 94.2213C41.7735 93.6306 42.929 93.3339 44.2498 93.3339ZM44.2498 95.641C43.2856 95.641 42.5061 95.9534 41.9114 96.5793C41.3167 97.2039 40.9667 98.1213 40.8626 99.3276H47.4146C47.4055 98.6067 47.2858 97.9704 47.0567 97.4199C46.8264 96.8682 46.4816 96.4348 46.0209 96.1173C45.5602 95.7985 44.9695 95.641 44.2498 95.641Z" fill="white"/>
<path d="M59.916 93.3339C61.6272 93.3339 63.0014 93.9585 64.0385 95.209C65.0757 96.4596 65.5949 98.3178 65.5949 100.784C65.5949 102.417 65.3541 103.791 64.8714 104.906C64.3899 106.023 63.7158 106.865 62.8531 107.433C61.989 108.002 60.9844 108.287 59.838 108.287C59.1079 108.287 58.4742 108.193 57.9368 108.007C57.3981 107.821 56.9387 107.571 56.5561 107.258C56.1735 106.945 55.8521 106.611 55.5919 106.254H55.4097C55.4526 106.593 55.4943 106.973 55.5333 107.394C55.5723 107.816 55.5919 108.204 55.5919 108.56V114.421H52.5065V93.6097H55.0206L55.45 95.6033H55.5932C55.8625 95.1947 56.1905 94.8173 56.5769 94.4699C56.9634 94.1224 57.4319 93.8466 57.9836 93.6423C58.5328 93.438 59.1782 93.3339 59.916 93.3339ZM59.0962 95.848C58.2543 95.848 57.5789 96.0158 57.0701 96.349C56.5626 96.6834 56.1931 97.1831 55.9627 97.8467C55.7324 98.5117 55.6088 99.3471 55.5919 100.354V100.784C55.5919 101.852 55.7025 102.758 55.9237 103.5C56.1449 104.243 56.5145 104.806 57.0311 105.193C57.5477 105.579 58.2491 105.773 59.1353 105.773C59.8731 105.773 60.4873 105.569 60.9779 105.16C61.4685 104.751 61.8354 104.17 62.0788 103.415C62.3221 102.659 62.4431 101.769 62.4431 100.745C62.4431 99.191 62.1699 97.986 61.622 97.1297C61.0768 96.2774 60.2336 95.848 59.0962 95.848Z" fill="white"/>
<path d="M84.7277 98.4453C84.7277 99.8949 84.5495 101.22 84.1942 102.418C83.839 103.617 83.3041 104.65 82.5923 105.518C81.8805 106.386 80.993 107.06 79.9286 107.536C78.8641 108.014 77.6253 108.253 76.2095 108.253C74.7846 108.253 73.5393 108.014 72.4709 107.536C71.4025 107.059 70.5151 106.383 69.8072 105.511C69.0993 104.638 68.567 103.601 68.2118 102.399C67.8552 101.196 67.6783 99.8702 67.6783 98.4193C67.6783 96.4921 68.0062 94.7939 68.662 93.326C69.3179 91.8582 70.286 90.713 71.5665 89.8867C72.847 89.0617 74.4293 88.6492 76.3149 88.6492C78.1211 88.6492 79.6514 89.0422 80.9059 89.8282C82.1603 90.6141 83.1115 91.7385 83.7583 93.2011C84.4037 94.6677 84.7277 96.414 84.7277 98.4453ZM69.0836 98.4336C69.0836 100.136 69.34 101.636 69.8527 102.933C70.3654 104.232 71.1501 105.246 72.2106 105.975C73.2699 106.705 74.6076 107.069 76.2225 107.069C77.8543 107.069 79.1973 106.708 80.2474 105.988C81.2975 105.267 82.0757 104.259 82.5793 102.966C83.0829 101.673 83.3341 100.166 83.3341 98.4466C83.3341 95.7282 82.742 93.6188 81.5565 92.1158C80.371 90.6141 78.6234 89.862 76.3136 89.862C74.6896 89.862 73.3415 90.2225 72.2692 90.9434C71.1969 91.6643 70.3979 92.6676 69.8709 93.952C69.3452 95.2389 69.0836 96.7302 69.0836 98.4336Z" fill="white"/>
<path d="M97.997 93.8544V108.014H96.9286L96.7334 105.461H96.6553C96.412 105.981 96.0698 106.455 95.626 106.88C95.1836 107.306 94.6396 107.644 93.9981 107.897C93.3553 108.148 92.6083 108.274 91.7573 108.274C90.672 108.274 89.7624 108.085 89.0285 107.708C88.2946 107.331 87.7415 106.759 87.368 105.995C86.9946 105.232 86.8085 104.276 86.8085 103.13V93.8544H88.1241V102.999C88.1241 104.414 88.4429 105.455 89.0818 106.124C89.7208 106.793 90.6551 107.128 91.8887 107.128C92.9311 107.128 93.8055 106.928 94.5134 106.529C95.2213 106.129 95.7601 105.524 96.1283 104.712C96.4966 103.9 96.6814 102.887 96.6814 101.671V93.8544H97.997Z" fill="white"/>
<path d="M105.928 107.182C106.337 107.182 106.717 107.152 107.068 107.091C107.42 107.03 107.731 106.952 108 106.857V107.951C107.722 108.048 107.396 108.131 107.023 108.205C106.649 108.279 106.237 108.316 105.785 108.316C104.986 108.316 104.321 108.166 103.792 107.867C103.262 107.567 102.863 107.111 102.593 106.499C102.324 105.887 102.19 105.108 102.19 104.161V94.9904H100.079V94.2083L102.177 93.8049L102.632 90.471H103.505V93.8973H107.921V94.9917H103.505V104.084C103.505 105.1 103.694 105.87 104.071 106.396C104.451 106.919 105.069 107.182 105.928 107.182Z" fill="white"/>
</svg>
